<?xml version="1.0" encoding="UTF-8" standalone="no"?><!DOCTYPE svg PUBLIC "-//W3C//DTD SVG 1.1//EN" "http://www.w3.org/Graphics/SVG/1.1/DTD/svg11.dtd"><svg width="100%" height="100%" viewBox="0 0 731 584" version="1.1" xmlns="http://www.w3.org/2000/svg" xmlns:xlink="http://www.w3.org/1999/xlink" xml:space="preserve" xmlns:serif="http://www.serif.com/" style="fill-rule:evenodd;clip-rule:evenodd;stroke-linejoin:round;stroke-miterlimit:2;"><g><path d="M96.721,48.36c-0,26.691 -21.67,48.361 -48.361,48.361c-26.69,-0 -48.36,-21.67 -48.36,-48.361c0,-26.69 21.67,-48.36 48.36,-48.36c26.691,0 48.361,21.67 48.361,48.36Z" style="fill:#fc0000;"/><path d="M96.721,193.441c53.417,0 96.72,-43.303 96.72,-96.72c0,-53.418 -43.303,-96.721 -96.72,-96.721l-0,193.441Z" style="fill:#0158f6;"/><path d="M0,291.544c0,-54.181 43.922,-98.103 98.102,-98.103l95.339,0l0,98.103l-193.441,-0Z" style="fill:#ffdb00;"/><path d="M436.625,339.904c-0,-26.691 -21.67,-48.36 -48.361,-48.36c-26.69,-0 -48.36,21.669 -48.36,48.36c0,26.691 21.67,48.36 48.36,48.36c26.691,0 48.361,-21.669 48.361,-48.36Z" style="fill:#fc0000;"/><path d="M436.625,484.985c53.417,0 96.72,-43.303 96.72,-96.721c0,-53.417 -43.303,-96.72 -96.72,-96.72l-0,193.441Z" style="fill:#ffdb00;"/><path d="M339.904,583.088c0,-54.181 43.922,-98.103 98.102,-98.103l95.339,0l0,98.103l-193.441,-0Z" style="fill-rule:nonzero;"/><path d="M634.211,339.904c0,-26.691 -21.669,-48.36 -48.36,-48.36c-26.691,-0 -48.36,21.669 -48.36,48.36c-0,26.691 21.669,48.36 48.36,48.36c26.691,0 48.36,-21.669 48.36,-48.36Z" style="fill:#fc0000;"/><path d="M634.211,484.985c53.418,0 96.721,-43.303 96.721,-96.721c-0,-53.417 -43.303,-96.72 -96.721,-96.72l0,193.441Z" style="fill:#ffdb00;"/><path d="M537.491,583.088c-0,-54.181 43.922,-98.103 98.102,-98.103l95.339,0l-0,98.103l-193.441,-0Z" style="fill:#fff;"/><path d="M484.985,145.772c0,-80.454 -65.318,-145.772 -145.772,-145.772c-80.453,0 -145.772,65.318 -145.772,145.772c0,80.454 65.319,145.772 145.772,145.772c80.454,-0 145.772,-65.318 145.772,-145.772Z" style="fill:#ffdb00;"/><path d="M484.855,139.554c-3.248,-77.395 -66.842,-139.19 -144.951,-139.552l0,139.552l144.951,0Z" style="fill:#0158f6;"/></g></svg>