<svg width="306" height="324" viewBox="0 0 306 324" fill="none" xmlns="http://www.w3.org/2000/svg">
<path d="M85.3069 154.619C115.433 154.619 139.854 130.198 139.854 100.072C139.854 69.9463 115.433 45.5246 85.3069 45.5246C55.1812 45.5246 30.7595 69.9463 30.7595 100.072C30.7595 130.198 55.1812 154.619 85.3069 154.619Z" fill="black"/>
<path fill-rule="evenodd" clip-rule="evenodd" d="M237.422 187.776L305.148 255.503H169.695L237.422 187.776Z" fill="#FFC928"/>
<path fill-rule="evenodd" clip-rule="evenodd" d="M237.422 255.503L305.148 323.229H169.695L237.422 255.503Z" fill="#FF1339"/>
<path fill-rule="evenodd" clip-rule="evenodd" d="M228.009 29.5793V0.0808105H246.835V29.5793H276.333V48.4052H246.835V77.9037H228.009V48.4052H198.511V29.5793H228.009Z" fill="#FF1339"/>
<path fill-rule="evenodd" clip-rule="evenodd" d="M169.696 238.839C169.696 192.233 131.914 154.451 85.3079 154.451C85.3072 154.451 85.3064 154.451 85.3061 154.451C38.6996 154.451 0.917969 192.233 0.917969 238.839V323.229H169.696V238.839Z" fill="#4529F5"/>
<path fill-rule="evenodd" clip-rule="evenodd" d="M130.138 0.0807876C130.138 24.8238 110.05 44.912 85.3068 44.912C60.5638 44.912 40.4756 24.8238 40.4756 0.0807915L130.138 0.0807876Z" fill="#FFC928"/>
</svg>
