<svg width="357" height="357" viewBox="0 0 357 357" fill="none" xmlns="http://www.w3.org/2000/svg">
<path d="M89.5533 89.8081C114.135 89.8081 134.062 69.881 134.062 45.2997C134.062 20.7185 114.135 0.791382 89.5533 0.791382C64.972 0.791382 45.0449 20.7185 45.0449 45.2997C45.0449 69.881 64.972 89.8081 89.5533 89.8081Z" fill="#4529F5"/>
<path d="M225.183 67.7039H314.199V156.72H225.183V67.7039Z" fill="black"/>
<path fill-rule="evenodd" clip-rule="evenodd" d="M178.569 178.824C178.569 155.215 169.191 132.574 152.497 115.88C135.804 99.1864 113.162 89.8081 89.5542 89.8081H89.5523C65.9437 89.8081 43.3026 99.1864 26.6088 115.88C9.91505 132.574 0.536743 155.215 0.536743 178.824C0.536743 256.496 0.536743 279.269 0.536743 279.269H178.569C178.569 279.269 178.569 256.496 178.569 178.824Z" fill="#FF1339"/>
<path d="M45.0449 278.628L89.553 355.718H0.536865L45.0449 278.628Z" fill="black"/>
<path d="M134.061 278.628L178.569 355.718H89.5532L134.061 278.628Z" fill="black"/>
<path fill-rule="evenodd" clip-rule="evenodd" d="M178.569 245.737C178.569 196.607 218.456 156.72 267.585 156.72C316.715 156.72 356.602 196.607 356.602 245.737V356.857H178.569V245.737Z" fill="#FFC928"/>
</svg>
