<svg width="350" height="700" viewBox="0 0 350 700" fill="none" xmlns="http://www.w3.org/2000/svg">
<path fill-rule="evenodd" clip-rule="evenodd" d="M349.525 524.451H291.273V582.702H349.525V524.451ZM349.525 582.707H291.273V640.958H349.525V582.707ZM233.018 582.707H291.269V640.958H233.018V582.707ZM349.525 640.961H291.273V699.213H349.525V640.961ZM233.018 640.961H291.269V699.213H233.018V640.961ZM233.014 640.961H174.763V699.213H233.014V640.961Z" fill="#F5F2E9"/>
<path fill-rule="evenodd" clip-rule="evenodd" d="M262.144 174.925C310.403 174.925 349.525 135.804 349.525 87.5443C349.525 39.285 310.403 0.163086 262.144 0.163086C213.884 0.163086 174.762 39.285 174.762 87.5443C174.762 135.804 213.884 174.925 262.144 174.925ZM262.144 128.327C284.667 128.327 302.926 110.068 302.926 87.5444C302.926 65.0211 284.667 46.7623 262.144 46.7623C239.62 46.7623 221.362 65.0211 221.362 87.5444C221.362 110.068 239.62 128.327 262.144 128.327Z" fill="#F5F2E9"/>
<path d="M0 87.5459C0.000813289 135.805 39.1224 174.926 87.3812 174.926C135.64 174.926 174.762 135.805 174.762 87.5459H0Z" fill="#F9F6EF"/>
<path d="M0 0.166992C0.000813289 48.4256 39.1224 87.5467 87.3812 87.5467C135.64 87.5467 174.762 48.4256 174.762 0.166992H0Z" fill="#F9F6EF"/>
<path d="M174.762 349.688L4.57764e-05 524.451H174.762V349.688Z" fill="#FDFCF9"/>
<path d="M87.3795 349.688L-1.52588e-05 437.068H87.3795V349.688Z" fill="#F5F2E9"/>
<path d="M0 609.135L87.3795 524.451V614.53L0 699.213V609.135Z" fill="white"/>
<path d="M87.3829 609.135L174.762 524.451V614.53L87.3829 699.213V609.135Z" fill="#FDFCF9"/>
<path d="M174.762 349.688C174.763 397.947 213.885 437.068 262.144 437.068C310.402 437.068 349.524 397.947 349.525 349.688H174.762Z" fill="#FDFCF9"/>
<path d="M174.762 524.451C174.763 476.193 213.885 437.071 262.144 437.071C310.402 437.071 349.524 476.193 349.525 524.451H174.762Z" fill="#F5F2E9"/>
<path d="M174.762 174.926L262.144 274.294L349.525 174.926L349.525 349.688H174.762V174.926Z" fill="white"/>
<path fill-rule="evenodd" clip-rule="evenodd" d="M174.762 174.926H0V349.688H174.762V174.926ZM87.3812 296.565C106.301 296.565 121.639 281.227 121.639 262.307C121.639 243.387 106.301 228.049 87.3812 228.049C68.4611 228.049 53.1234 243.387 53.1234 262.307C53.1234 281.227 68.4611 296.565 87.3812 296.565Z" fill="#FDFCF9"/>
</svg>
