<svg width="667" height="450" viewBox="0 0 667 450" fill="none" xmlns="http://www.w3.org/2000/svg">
<path d="M444.995 226.345C444.995 349.205 544.285 448.873 667 449.488L667 225.205L444.998 225.205C444.996 225.584 444.995 225.965 444.995 226.345Z" fill="white"/>
<path d="M444.995 2.06188C444.995 124.922 345.705 224.59 222.99 225.205L222.99 0.921631L444.992 0.92165C444.994 1.30133 444.995 1.6816 444.995 2.06188Z" fill="white"/>
<path d="M222.99 2.06188C222.99 124.922 123.7 224.59 0.985031 225.205L0.985046 0.921631L222.987 0.92165C222.989 1.30133 222.99 1.6816 222.99 2.06188Z" fill="white"/>
<path d="M444.995 226.345C444.995 349.205 345.705 448.873 222.99 449.488L222.99 225.205L444.992 225.205C444.994 225.584 444.995 225.965 444.995 226.345Z" fill="#FDFCF9"/>
<path d="M222.99 226.345C222.99 349.206 123.7 448.874 0.985031 449.488L0.985046 225.205L222.987 225.205C222.989 225.585 222.99 225.965 222.99 226.345Z" fill="#FDFCF9"/>
<path d="M444.995 2.06188C444.995 124.922 544.285 224.59 667 225.205L667 0.921631L444.998 0.92165C444.996 1.30133 444.995 1.6816 444.995 2.06188Z" fill="#FDFCF9"/>
</svg>
