<svg width="525" height="526" viewBox="0 0 525 526" fill="none" xmlns="http://www.w3.org/2000/svg">
<path fill-rule="evenodd" clip-rule="evenodd" d="M209.403 131.628C209.403 88.4964 174.377 53.4805 131.255 53.4805C88.1235 53.4805 53.1081 88.4964 53.1081 131.628H209.403Z" fill="#FDFCF9"/>
<path fill-rule="evenodd" clip-rule="evenodd" d="M53.1081 131.628H0.0039978C0.0039978 204.069 58.8143 262.879 131.255 262.879C203.686 262.879 262.497 204.069 262.497 131.628H209.403C209.403 174.76 174.377 209.775 131.255 209.775C88.1235 209.775 53.1081 174.76 53.1081 131.628Z" fill="#F9F6EF"/>
<path fill-rule="evenodd" clip-rule="evenodd" d="M218.016 218.704V131.592C218.016 108.494 208.842 86.3375 192.504 69.9995C176.166 53.6615 154.009 44.4873 130.904 44.4873C107.805 44.4873 85.6414 53.6615 69.3105 69.9995C52.9725 86.3375 43.7912 108.494 43.7912 131.592V218.704H57.241V131.592C57.241 112.062 65.0065 93.3241 78.8174 79.5062C92.6353 65.6953 111.366 57.9371 130.904 57.9371C150.441 57.9371 169.179 65.6953 182.99 79.5062C196.808 93.3241 204.566 112.062 204.566 131.592V218.704H218.016Z" fill="black"/>
<path d="M182.298 156.222H218.015V218.703H182.298V156.222Z" fill="#02800E"/>
<path d="M43.7936 156.222H79.5112V218.703H43.7936V156.222Z" fill="#02800E"/>
<path fill-rule="evenodd" clip-rule="evenodd" d="M525 131.625C452.569 131.625 393.749 72.8143 393.749 0.383789H525V131.625Z" fill="#FDFCF9"/>
<path fill-rule="evenodd" clip-rule="evenodd" d="M525 131.585C452.569 131.585 393.749 190.396 393.749 262.826H525V131.585Z" fill="#F9F6EF"/>
<path d="M328.122 66.0078H262.497V131.633H328.122V66.0078Z" fill="#FDFCF9"/>
<path d="M328.121 197.249H262.497V262.874H328.121V197.249Z" fill="#FDFCF9"/>
<path d="M393.747 0.382812H328.123V66.0077H393.747V0.382812Z" fill="#F9F6EF"/>
<path d="M393.747 131.622H328.123V197.247H393.747V131.622Z" fill="#F9F6EF"/>
<path d="M525 262.825L262.498 525.327H525V262.825Z" fill="#F9F6EF"/>
<path d="M262.498 262.825L525 525.327H262.498V262.825Z" fill="#FDFCF9"/>
<path fill-rule="evenodd" clip-rule="evenodd" d="M525 525.327H262.498L393.749 394.076L525 525.327Z" fill="#F9F6EF"/>
<path d="M0.034668 392.374V262.826C145.01 262.826 262.536 380.352 262.536 525.327H132.988C132.988 451.899 73.4629 392.374 0.034668 392.374Z" fill="#F9F6EF"/>
</svg>
