<svg width="269" height="269" viewBox="0 0 269 269" fill="none" xmlns="http://www.w3.org/2000/svg">
<path d="M258.063 82.833C266.769 103.639 270.079 126.307 267.684 148.734L134.54 134.52L258.063 82.833Z" fill="black"/>
<path d="M268.441 134.519C268.441 158.857 261.808 182.734 249.255 203.584C236.702 224.434 218.704 241.469 197.196 252.857C175.688 264.245 151.482 269.556 127.182 268.218C102.881 266.881 79.4049 258.946 59.2761 245.266C39.1472 231.587 23.1272 212.68 12.9382 190.578C2.74919 168.477 -1.22354 144.016 1.44708 119.826C4.1177 95.6356 13.3307 72.6306 28.0956 53.2839C42.8606 33.9372 62.6191 18.9803 85.2473 10.0212L134.54 134.519L268.441 134.519Z" fill="#FFC928"/>
<path d="M226.066 36.7832C240.453 50.256 251.688 66.7389 258.97 85.0551L134.54 134.52L226.066 36.7832Z" fill="#FF1339"/>
<path d="M85.2424 10.0233C108.867 0.668504 134.666 -1.77126 159.625 2.98893C184.584 7.74913 207.674 19.5128 226.198 36.9059L134.54 134.519L85.2424 10.0233Z" fill="#4529F5"/>
<path d="M76.1141 175.127L80.8821 168.471H75.3141C68.5621 178.135 67.1861 180.119 67.1861 183.319C67.1861 187.863 70.4821 191.511 75.6341 191.511C80.5621 191.511 84.0821 187.863 84.0821 183.319C84.0821 178.999 80.8501 175.191 76.1141 175.127ZM75.6341 186.903C73.6501 186.903 72.3061 185.303 72.3061 183.319C72.3061 181.335 73.6501 179.735 75.6341 179.735C77.6181 179.735 78.9621 181.335 78.9621 183.319C78.9621 185.303 77.6181 186.903 75.6341 186.903ZM95.1229 184.343L90.3549 190.999H95.9229C102.675 181.335 104.051 179.351 104.051 176.151C104.051 171.607 100.755 167.959 95.6029 167.959C90.6749 167.959 87.1549 171.607 87.1549 176.151C87.1549 180.471 90.3869 184.279 95.1229 184.343ZM95.6029 172.567C97.5869 172.567 98.9309 174.167 98.9309 176.151C98.9309 178.135 97.5869 179.735 95.6029 179.735C93.6189 179.735 92.2749 178.135 92.2749 176.151C92.2749 174.167 93.6189 172.567 95.6029 172.567ZM112.532 178.711C115.54 178.711 117.876 176.375 117.876 173.335C117.876 170.359 115.54 167.959 112.532 167.959C109.524 167.959 107.124 170.359 107.124 173.335C107.124 176.375 109.524 178.711 112.532 178.711ZM113.78 190.999L128.116 168.471H124.532L110.196 190.999H113.78ZM112.5 175.127C111.54 175.127 110.708 174.295 110.708 173.335C110.708 172.375 111.54 171.543 112.5 171.543C113.46 171.543 114.292 172.375 114.292 173.335C114.292 174.295 113.46 175.127 112.5 175.127ZM125.844 191.511C128.852 191.511 131.188 189.175 131.188 186.135C131.188 183.159 128.852 180.759 125.844 180.759C122.836 180.759 120.436 183.159 120.436 186.135C120.436 189.175 122.836 191.511 125.844 191.511ZM125.812 187.927C124.852 187.927 124.02 187.095 124.02 186.135C124.02 185.175 124.852 184.343 125.812 184.343C126.772 184.343 127.604 185.175 127.604 186.135C127.604 187.095 126.772 187.927 125.812 187.927Z" fill="black"/>
<path d="M122.201 36.8621V40.5485L125.068 39.7037V53.2461H129.164V34.8141L122.201 36.8621ZM143.945 43.7741C144.944 42.8013 145.558 41.5469 145.558 40.1389C145.558 37.1949 142.844 34.8141 139.414 34.8141C135.753 34.8141 133.27 37.1949 133.27 40.1389C133.27 41.5213 133.833 42.8013 134.806 43.7485C133.577 44.7981 132.86 46.2829 132.86 47.9213C132.86 51.0957 135.523 53.6557 139.414 53.6557C143.126 53.6557 145.968 51.0957 145.968 47.9213C145.968 46.2829 145.2 44.7981 143.945 43.7741ZM137.366 40.3437C137.366 39.3197 138.288 38.5005 139.414 38.5005C140.54 38.5005 141.462 39.3197 141.462 40.3437C141.462 41.3677 140.54 42.1869 139.414 42.1869C138.288 42.1869 137.366 41.3677 137.366 40.3437ZM139.414 49.9693C138.057 49.9693 136.956 48.9709 136.956 47.7165C136.956 46.4621 138.057 45.4637 139.414 45.4637C140.771 45.4637 141.872 46.4621 141.872 47.7165C141.872 48.9709 140.771 49.9693 139.414 49.9693ZM152.762 43.4157C155.168 43.4157 157.037 41.5469 157.037 39.1149C157.037 36.7341 155.168 34.8141 152.762 34.8141C150.355 34.8141 148.435 36.7341 148.435 39.1149C148.435 41.5469 150.355 43.4157 152.762 43.4157ZM153.76 53.2461L165.229 35.2237H162.362L150.893 53.2461H153.76ZM152.736 40.5485C151.968 40.5485 151.303 39.8829 151.303 39.1149C151.303 38.3469 151.968 37.6813 152.736 37.6813C153.504 37.6813 154.17 38.3469 154.17 39.1149C154.17 39.8829 153.504 40.5485 152.736 40.5485ZM163.411 53.6557C165.818 53.6557 167.687 51.7869 167.687 49.3549C167.687 46.9741 165.818 45.0541 163.411 45.0541C161.005 45.0541 159.085 46.9741 159.085 49.3549C159.085 51.7869 161.005 53.6557 163.411 53.6557ZM163.386 50.7885C162.618 50.7885 161.952 50.1229 161.952 49.3549C161.952 48.5869 162.618 47.9213 163.386 47.9213C164.154 47.9213 164.819 48.5869 164.819 49.3549C164.819 50.1229 164.154 50.7885 163.386 50.7885Z" fill="white"/>
<path d="M202.719 71.546V75.2324H209.682L204.153 89.5684H208.454L215.417 71.546H202.719ZM220.971 79.738C223.377 79.738 225.246 77.8692 225.246 75.4372C225.246 73.0564 223.377 71.1364 220.971 71.1364C218.564 71.1364 216.644 73.0564 216.644 75.4372C216.644 77.8692 218.564 79.738 220.971 79.738ZM221.969 89.5684L233.438 71.546H230.571L219.102 89.5684H221.969ZM220.945 76.8708C220.177 76.8708 219.511 76.2052 219.511 75.4372C219.511 74.6692 220.177 74.0036 220.945 74.0036C221.713 74.0036 222.379 74.6692 222.379 75.4372C222.379 76.2052 221.713 76.8708 220.945 76.8708ZM231.62 89.978C234.027 89.978 235.895 88.1092 235.895 85.6772C235.895 83.2964 234.027 81.3764 231.62 81.3764C229.214 81.3764 227.294 83.2964 227.294 85.6772C227.294 88.1092 229.214 89.978 231.62 89.978ZM231.595 87.1108C230.827 87.1108 230.161 86.4452 230.161 85.6772C230.161 84.9092 230.827 84.2436 231.595 84.2436C232.363 84.2436 233.028 84.9092 233.028 85.6772C233.028 86.4452 232.363 87.1108 231.595 87.1108Z" fill="white"/>
</svg>
