<?xml version="1.0" encoding="UTF-8" standalone="no"?><!DOCTYPE svg PUBLIC "-//W3C//DTD SVG 1.1//EN" "http://www.w3.org/Graphics/SVG/1.1/DTD/svg11.dtd"><svg width="100%" height="100%" viewBox="0 0 494 472" version="1.1" xmlns="http://www.w3.org/2000/svg" xmlns:xlink="http://www.w3.org/1999/xlink" xml:space="preserve" xmlns:serif="http://www.serif.com/" style="fill-rule:evenodd;clip-rule:evenodd;stroke-linejoin:round;stroke-miterlimit:2;"><g><rect x="0" y="0" width="236.078" height="235.598"/><path d="M0,353.637c0,-65.191 52.848,-118.039 118.039,-118.039c65.191,0 118.039,52.848 118.039,118.039l-0,117.56l-236.078,-0l0,-117.56Z" style="fill:#0059f7;fill-rule:nonzero;"/><path d="M257.736,459.549c0,-65.191 52.848,-118.039 118.039,-118.039c65.191,-0 118.039,52.848 118.039,118.039l0,11.648l-236.078,0l0,-11.648Z" style="fill:#fc0000;fill-rule:nonzero;"/><path d="M257.736,11.648c0,65.191 52.848,118.039 118.039,118.039c65.191,0 118.039,-52.848 118.039,-118.039l0,-11.648l-236.078,0l0,11.648Z" style="fill:#fff;fill-rule:nonzero;"/><path d="M177.6,118.88c-0,-33.402 -27.174,-60.521 -60.644,-60.521c-33.47,0 -60.644,27.119 -60.644,60.521c0,33.402 27.174,60.521 60.644,60.521c33.47,-0 60.644,-27.119 60.644,-60.521Z" style="fill:#fff;"/><path d="M433.17,235.599c0,-33.403 -27.173,-60.521 -60.643,-60.521c-33.471,-0 -60.644,27.118 -60.644,60.521c-0,33.402 27.173,60.52 60.644,60.52c33.47,0 60.643,-27.118 60.643,-60.52Z" style="fill:#0059f7;"/></g></svg>