<svg width="219" height="220" viewBox="0 0 219 220" fill="none" xmlns="http://www.w3.org/2000/svg">
<path fill-rule="evenodd" clip-rule="evenodd" d="M109.993 55.1432V0.763672C140.033 0.763672 164.428 25.1186 164.495 55.1432H109.993Z" fill="#FDFCF9"/>
<path fill-rule="evenodd" clip-rule="evenodd" d="M109.993 109.521V55.1416C140.033 55.1416 164.428 79.4966 164.495 109.521H109.993Z" fill="white"/>
<path fill-rule="evenodd" clip-rule="evenodd" d="M218.997 55.1432V0.763672C188.958 0.763672 164.562 25.1186 164.495 55.1432H218.997Z" fill="white"/>
<path fill-rule="evenodd" clip-rule="evenodd" d="M218.997 109.521V55.1416C188.958 55.1416 164.562 79.4966 164.495 109.521H218.997Z" fill="#FDFCF9"/>
<path d="M109.992 109.894L55.4898 55.3916L0.987549 109.894L109.992 109.894Z" fill="#FF1339"/>
<path d="M109.992 55.3886L55.4897 0.88623V0.889557L0.987549 55.3918H109.992L109.989 55.3886H109.992Z" fill="#FFC928"/>
<path fill-rule="evenodd" clip-rule="evenodd" d="M55.4911 218.648H0.989014L55.4911 164.146V218.648Z" fill="white"/>
<path fill-rule="evenodd" clip-rule="evenodd" d="M55.4911 164.145H0.989014L55.4911 109.643V164.145Z" fill="#FDFCF9"/>
<path fill-rule="evenodd" clip-rule="evenodd" d="M109.993 218.648H55.4912L109.993 164.146V218.648Z" fill="#FDFCF9"/>
<path fill-rule="evenodd" clip-rule="evenodd" d="M109.993 164.145H55.4912L109.993 109.643V164.145Z" fill="white"/>
<path fill-rule="evenodd" clip-rule="evenodd" d="M141.978 170.399C137.015 168.802 131.677 168.802 126.714 170.399V174.361C124.671 175.15 122.763 176.253 121.056 177.628L117.626 175.647C113.761 179.146 111.092 183.77 109.993 188.866L113.425 190.846C113.087 193.011 113.087 195.214 113.425 197.379L109.993 199.361C111.092 204.457 113.761 209.079 117.626 212.578L121.056 210.597C122.763 211.972 124.671 213.075 126.714 213.864V217.826C131.677 219.423 137.015 219.423 141.978 217.826V213.864C144.021 213.075 145.93 211.972 147.636 210.597L151.067 212.578C154.93 209.079 157.6 204.457 158.698 199.361L155.267 197.379C155.605 195.214 155.605 193.011 155.267 190.846L158.698 188.866C157.6 183.77 154.93 179.146 151.067 175.647L147.636 177.628C145.93 176.253 144.021 175.15 141.978 174.361V170.399ZM134.346 181.987C141.039 181.987 146.472 187.42 146.472 194.113C146.472 200.805 141.039 206.239 134.346 206.239C127.653 206.239 122.22 200.805 122.22 194.113C122.22 187.42 127.653 181.987 134.346 181.987Z" fill="black"/>
<path fill-rule="evenodd" clip-rule="evenodd" d="M192.823 112.743C183.143 108.944 172.384 108.944 162.704 112.743V126.107C158.62 128.565 155.2 131.985 152.743 136.07H139.376C135.58 145.751 135.58 156.507 139.376 166.188H152.743C155.2 170.273 158.62 173.693 162.704 176.151V189.517C172.384 193.314 183.143 193.314 192.823 189.517V176.151C196.906 173.693 200.327 170.273 202.786 166.188H216.15C219.947 156.507 219.947 145.751 216.15 136.07H202.786C200.327 131.985 196.906 128.565 192.823 126.107V112.743ZM177.764 135.861C186.19 135.861 193.033 142.701 193.033 151.129C193.033 159.557 186.19 166.399 177.764 166.399C169.337 166.399 162.494 159.557 162.494 151.129C162.494 142.701 169.337 135.861 177.764 135.861Z" fill="#4529F5"/>
</svg>
