<svg width="180" height="177" viewBox="0 0 180 177" fill="none" xmlns="http://www.w3.org/2000/svg">
<path fill-rule="evenodd" clip-rule="evenodd" d="M89.9796 88.6362H45.1968V88.6366C45.1968 100.285 49.9118 111.457 58.3151 119.694C66.7185 127.931 78.0975 132.559 89.9796 132.559V88.6362Z" fill="white"/>
<path fill-rule="evenodd" clip-rule="evenodd" d="M89.9796 176.482H45.1968V176.482C45.1968 164.833 49.9118 153.661 58.3151 145.424C66.7185 137.188 78.0975 132.56 89.9796 132.56V176.482Z" fill="#FDFCF9"/>
<path fill-rule="evenodd" clip-rule="evenodd" d="M0.414974 88.6362H45.1978V88.6366C45.1978 100.285 40.4827 111.457 32.0794 119.694C23.676 127.931 12.297 132.559 0.414974 132.559V88.6362Z" fill="#FDFCF9"/>
<path fill-rule="evenodd" clip-rule="evenodd" d="M0.414974 176.482H45.1978V176.482C45.1978 164.833 40.4827 153.661 32.0794 145.424C23.676 137.188 12.297 132.56 0.414974 132.56V176.482Z" fill="white"/>
<path fill-rule="evenodd" clip-rule="evenodd" d="M89.9844 44.7143C89.9844 68.9717 69.9088 88.6362 45.1807 88.6362C20.4527 88.6362 0.418823 68.9717 0.418823 44.7143V0.79155H89.9844V44.7143Z" fill="white"/>
<path fill-rule="evenodd" clip-rule="evenodd" d="M89.9642 0.79155L179.53 88.6362V0.79155L89.9642 0.79155Z" fill="#FDFCF9"/>
<path fill-rule="evenodd" clip-rule="evenodd" d="M134.766 176.845L179.549 132.923V176.845H134.766Z" fill="#FDFCF9"/>
<path fill-rule="evenodd" clip-rule="evenodd" d="M134.766 132.559L179.549 88.6362V132.559H134.766Z" fill="white"/>
<path fill-rule="evenodd" clip-rule="evenodd" d="M89.9494 176.845L134.732 132.923V176.845H89.9494Z" fill="white"/>
<path fill-rule="evenodd" clip-rule="evenodd" d="M89.9494 132.559L134.732 88.6362V132.559H89.9494Z" fill="white"/>
<path fill-rule="evenodd" clip-rule="evenodd" d="M89.984 71.0602L161.631 0.79248H179.518V41.8612L107.022 112.977L89.984 96.2503V71.0602Z" fill="#4529F5"/>
<path fill-rule="evenodd" clip-rule="evenodd" d="M89.9342 71.0602L18.2869 0.79248H0.400177V41.8612L72.8965 112.977L89.9342 96.2503V71.0602Z" fill="black"/>
<circle cx="89.9342" cy="88.636" r="43.9221" fill="#FFC928"/>
<path d="M89.9824 119.384C107.295 119.384 121.33 105.618 121.33 88.636C121.33 71.6542 107.295 57.8877 89.9824 57.8877C72.6696 57.8877 58.635 71.6542 58.635 88.636C58.635 105.618 72.6696 119.384 89.9824 119.384Z" fill="#F0B400"/>
<path fill-rule="evenodd" clip-rule="evenodd" d="M67.5883 38.7642C67.5883 52.53 78.9799 63.7169 93.0116 63.7169C78.9799 63.7169 67.5883 74.8704 67.5883 88.6362C67.5883 74.8704 56.1964 63.7169 42.1647 63.7169C56.1964 63.7169 67.5883 52.53 67.5883 38.7642Z" fill="#FDFCF9"/>
<path fill-rule="evenodd" clip-rule="evenodd" d="M112.373 95.416C112.373 103.797 119.308 110.608 127.851 110.608C119.308 110.608 112.373 117.398 112.373 125.779C112.373 117.398 105.437 110.608 96.8947 110.608C105.437 110.608 112.373 103.797 112.373 95.416Z" fill="#FDFCF9"/>
</svg>
