<svg width="269" height="269" viewBox="0 0 269 269" fill="none" xmlns="http://www.w3.org/2000/svg">
<path fill-rule="evenodd" clip-rule="evenodd" d="M267.995 132.271C269.322 206.148 210.505 267.112 136.626 268.436C90.8284 269.259 47.798 246.595 22.5679 208.369L134.228 134.667L267.995 132.271Z" fill="#FFC927"/>
<path fill-rule="evenodd" clip-rule="evenodd" d="M22.5064 208.28C-18.1457 146.577 -1.08385 63.6014 60.616 22.9474C81.8128 8.98068 106.551 1.3313 131.938 0.895508L134.228 134.667L22.5064 208.28Z" fill="#4529F5"/>
<path fill-rule="evenodd" clip-rule="evenodd" d="M131.615 0.902567C165.641 0.237029 198.638 12.5629 223.893 35.3697L134.227 134.667L131.615 0.902567Z" fill="#FF1339"/>
<path fill-rule="evenodd" clip-rule="evenodd" d="M253.241 73.5518C263.104 92.7561 268.172 114.062 268.015 135.649L134.228 134.668L253.241 73.5518Z" fill="black"/>
<path fill-rule="evenodd" clip-rule="evenodd" d="M223.372 34.9043C235.945 46.1404 246.284 59.6507 253.836 74.7278L134.227 134.668L223.372 34.9043Z" fill="#02800E"/>
<path d="M150.307 204.276H160.035V208.372H165.155V204.276H167.203V199.668H165.155V195.572H160.035V199.668H157.315L162.147 185.844H157.091L150.307 204.276ZM169.776 187.892V192.5L173.36 191.444V208.372H178.48V185.332L169.776 187.892ZM185.73 189.999C187.535 189.999 188.937 188.598 188.937 186.774C188.937 184.988 187.535 183.548 185.73 183.548C183.926 183.548 182.486 184.988 182.486 186.774C182.486 188.598 183.926 189.999 185.73 189.999ZM186.479 197.372L195.081 183.855H192.93L184.329 197.372H186.479ZM185.711 187.849C185.135 187.849 184.636 187.35 184.636 186.774C184.636 186.198 185.135 185.698 185.711 185.698C186.287 185.698 186.786 186.198 186.786 186.774C186.786 187.35 186.287 187.849 185.711 187.849ZM193.718 197.679C195.522 197.679 196.924 196.278 196.924 194.454C196.924 192.668 195.522 191.228 193.718 191.228C191.913 191.228 190.473 192.668 190.473 194.454C190.473 196.278 191.913 197.679 193.718 197.679ZM193.698 195.529C193.122 195.529 192.623 195.03 192.623 194.454C192.623 193.878 193.122 193.378 193.698 193.378C194.274 193.378 194.774 193.878 194.774 194.454C194.774 195.03 194.274 195.529 193.698 195.529Z" fill="black"/>
<path d="M54.4817 97.2143L60.4977 89.0863H45.6497V93.6943H51.7937L48.2097 98.3023L50.7697 101.854C52.5297 100.606 55.8897 101.31 55.8897 104.19C55.8897 106.43 54.2897 107.518 52.5617 107.518C50.8337 107.518 49.4577 106.174 49.2337 104.446L44.6257 105.47C44.8177 108.414 47.4737 112.126 52.5617 112.126C57.4257 112.126 61.0097 108.734 61.0097 104.19C61.0097 99.6143 57.7457 97.3103 54.4817 97.2143ZM63.5825 107.518H73.3105V111.614H78.4305V107.518H80.4785V102.91H78.4305V98.8143H73.3105V102.91H70.5905L75.4225 89.0863H70.3665L63.5825 107.518ZM86.1936 93.2415C87.9984 93.2415 89.4 91.8399 89.4 90.0159C89.4 88.2303 87.9984 86.7903 86.1936 86.7903C84.3888 86.7903 82.9488 88.2303 82.9488 90.0159C82.9488 91.8399 84.3888 93.2415 86.1936 93.2415ZM86.9424 100.614L95.544 87.0975H93.3936L84.792 100.614H86.9424ZM86.1744 91.0911C85.5984 91.0911 85.0992 90.5919 85.0992 90.0159C85.0992 89.4399 85.5984 88.9407 86.1744 88.9407C86.7504 88.9407 87.2496 89.4399 87.2496 90.0159C87.2496 90.5919 86.7504 91.0911 86.1744 91.0911ZM94.1808 100.921C95.9856 100.921 97.3872 99.5199 97.3872 97.6959C97.3872 95.9103 95.9856 94.4703 94.1808 94.4703C92.376 94.4703 90.936 95.9103 90.936 97.6959C90.936 99.5199 92.376 100.921 94.1808 100.921ZM94.1616 98.7711C93.5856 98.7711 93.0864 98.2719 93.0864 97.6959C93.0864 97.1199 93.5856 96.6207 94.1616 96.6207C94.7376 96.6207 95.2368 97.1199 95.2368 97.6959C95.2368 98.2719 94.7376 98.7711 94.1616 98.7711Z" fill="white"/>
<path d="M145.16 30.8426V34.529L148.027 33.6842V47.2266H152.123V28.7946L145.16 30.8426ZM166.265 40.673C167.545 39.1626 168.927 37.1658 168.927 34.913C168.927 31.4826 166.06 28.7946 162.373 28.7946C158.405 28.7946 155.82 31.6874 155.82 34.913C155.82 35.9882 156.255 37.473 156.997 38.369L160.453 36.8074C160.121 36.3466 159.916 35.5274 159.916 34.913C159.916 33.3258 161.196 32.481 162.373 32.481C163.551 32.481 164.831 33.3258 164.831 34.913C164.831 36.193 164.396 37.473 161.298 40.9802L155.82 47.2266H168.927V43.5402H163.833L166.265 40.673ZM173.499 32.3283C174.943 32.3283 176.064 31.207 176.064 29.7478C176.064 28.3194 174.943 27.1674 173.499 27.1674C172.055 27.1674 170.903 28.3194 170.903 29.7478C170.903 31.207 172.055 32.3283 173.499 32.3283ZM174.098 38.2266L180.979 27.4131H179.259L172.378 38.2266H174.098ZM173.484 30.608C173.023 30.608 172.624 30.2086 172.624 29.7478C172.624 29.287 173.023 28.8877 173.484 28.8877C173.945 28.8877 174.344 29.287 174.344 29.7478C174.344 30.2086 173.945 30.608 173.484 30.608ZM179.889 38.4723C181.333 38.4723 182.454 37.351 182.454 35.8918C182.454 34.4634 181.333 33.3114 179.889 33.3114C178.445 33.3114 177.293 34.4634 177.293 35.8918C177.293 37.351 178.445 38.4723 179.889 38.4723ZM179.874 36.752C179.413 36.752 179.013 36.3526 179.013 35.8918C179.013 35.431 179.413 35.0317 179.874 35.0317C180.334 35.0317 180.734 35.431 180.734 35.8918C180.734 36.3526 180.334 36.752 179.874 36.752Z" fill="white"/>
<path d="M212.462 65.7389L216.276 60.4141H211.822C206.42 68.1453 205.319 69.7325 205.319 72.2925C205.319 75.9277 207.956 78.8461 212.078 78.8461C216.02 78.8461 218.836 75.9277 218.836 72.2925C218.836 68.8365 216.25 65.7901 212.462 65.7389ZM212.078 75.1597C210.49 75.1597 209.415 73.8797 209.415 72.2925C209.415 70.7053 210.49 69.4253 212.078 69.4253C213.665 69.4253 214.74 70.7053 214.74 72.2925C214.74 73.8797 213.665 75.1597 212.078 75.1597ZM223.399 63.5383C224.842 63.5383 225.964 62.417 225.964 60.9578C225.964 59.5293 224.842 58.3773 223.399 58.3773C221.955 58.3773 220.803 59.5293 220.803 60.9578C220.803 62.417 221.955 63.5383 223.399 63.5383ZM223.998 69.4365L230.879 58.6231H229.159L222.277 69.4365H223.998ZM223.383 61.818C222.922 61.818 222.523 61.4186 222.523 60.9578C222.523 60.497 222.922 60.0976 223.383 60.0976C223.844 60.0976 224.243 60.497 224.243 60.9578C224.243 61.4186 223.844 61.818 223.383 61.818ZM229.788 69.6823C231.232 69.6823 232.353 68.561 232.353 67.1018C232.353 65.6733 231.232 64.5213 229.788 64.5213C228.344 64.5213 227.192 65.6733 227.192 67.1018C227.192 68.561 228.344 69.6823 229.788 69.6823ZM229.773 67.962C229.312 67.962 228.913 67.5626 228.913 67.1018C228.913 66.641 229.312 66.2416 229.773 66.2416C230.234 66.2416 230.633 66.641 230.633 67.1018C230.633 67.5626 230.234 67.962 229.773 67.962Z" fill="white"/>
</svg>
