<?xml version="1.0" encoding="UTF-8" standalone="no"?>
<!DOCTYPE svg PUBLIC "-//W3C//DTD SVG 1.1//EN" "http://www.w3.org/Graphics/SVG/1.1/DTD/svg11.dtd">
<svg width="100%" height="100%" viewBox="0 0 268 268" version="1.1" xmlns="http://www.w3.org/2000/svg" xmlns:xlink="http://www.w3.org/1999/xlink" xml:space="preserve" xmlns:serif="http://www.serif.com/" style="fill-rule:evenodd;clip-rule:evenodd;stroke-linejoin:round;stroke-miterlimit:2;">
    <g transform="matrix(1,0,0,1,-0.555222,-0.841711)">
        <g>
            <path d="M268.358,134.743C268.358,161.585 260.291,187.807 245.204,210.007C230.117,232.207 208.706,249.36 183.749,259.241C158.792,269.122 131.442,271.275 105.247,265.42C79.052,259.564 55.221,245.971 36.847,226.405C18.473,206.838 6.403,182.201 2.204,155.69C-1.995,129.179 1.871,102.018 13.299,77.731C24.728,53.444 43.192,33.152 66.295,19.489C89.399,5.825 116.076,-0.579 142.864,1.106L134.457,134.743L268.358,134.743Z" style="fill:rgb(255,201,40);fill-rule:nonzero;"/>
            <path d="M142.617,1.091C173.718,2.99 203.184,15.676 225.937,36.963C248.691,58.251 263.308,86.808 267.271,117.714L134.457,134.743L142.617,1.091Z" style="fill:rgb(69,41,245);fill-rule:nonzero;"/>
            <path d="M267.283,117.712C267.992,123.29 268.358,128.974 268.358,134.743L134.457,134.743L267.283,117.712Z"/>
            <path d="M36.977,126.414L36.977,131.022L45.681,131.022L38.769,148.942L44.145,148.942L52.849,126.414L36.977,126.414ZM63.311,133.07L68.079,126.414L62.511,126.414C55.759,136.078 54.383,138.062 54.383,141.262C54.383,145.806 57.679,149.454 62.831,149.454C67.759,149.454 71.279,145.806 71.279,141.262C71.279,136.942 68.047,133.134 63.311,133.07ZM62.831,144.846C60.847,144.846 59.503,143.246 59.503,141.262C59.503,139.278 60.847,137.678 62.831,137.678C64.815,137.678 66.159,139.278 66.159,141.262C66.159,143.246 64.815,144.846 62.831,144.846ZM79.76,136.654C82.768,136.654 85.104,134.318 85.104,131.278C85.104,128.302 82.768,125.902 79.76,125.902C76.752,125.902 74.352,128.302 74.352,131.278C74.352,134.318 76.752,136.654 79.76,136.654ZM81.008,148.942L95.344,126.414L91.76,126.414L77.424,148.942L81.008,148.942ZM79.728,133.07C78.768,133.07 77.936,132.238 77.936,131.278C77.936,130.318 78.768,129.486 79.728,129.486C80.688,129.486 81.52,130.318 81.52,131.278C81.52,132.238 80.688,133.07 79.728,133.07ZM93.072,149.454C96.08,149.454 98.416,147.118 98.416,144.078C98.416,141.102 96.08,138.702 93.072,138.702C90.064,138.702 87.664,141.102 87.664,144.078C87.664,147.118 90.064,149.454 93.072,149.454ZM93.04,145.87C92.08,145.87 91.248,145.038 91.248,144.078C91.248,143.118 92.08,142.286 93.04,142.286C94,142.286 94.832,143.118 94.832,144.078C94.832,145.038 94,145.87 93.04,145.87Z" style="fill-rule:nonzero;"/>
            <path d="M183.856,83.363C185.136,81.853 186.518,79.856 186.518,77.603C186.518,74.173 183.651,71.485 179.965,71.485C175.997,71.485 173.411,74.378 173.411,77.603C173.411,78.679 173.846,80.163 174.589,81.059L178.045,79.498C177.712,79.037 177.507,78.218 177.507,77.603C177.507,76.016 178.787,75.171 179.965,75.171C181.142,75.171 182.422,76.016 182.422,77.603C182.422,78.883 181.987,80.163 178.89,83.671L173.411,89.917L186.518,89.917L186.518,86.231L181.424,86.231L183.856,83.363ZM199.431,83.363C200.711,81.853 202.094,79.856 202.094,77.603C202.094,74.173 199.226,71.485 195.54,71.485C191.572,71.485 188.986,74.378 188.986,77.603C188.986,78.679 189.421,80.163 190.164,81.059L193.62,79.498C193.287,79.037 193.082,78.218 193.082,77.603C193.082,76.016 194.362,75.171 195.54,75.171C196.717,75.171 197.997,76.016 197.997,77.603C197.997,78.883 197.562,80.163 194.465,83.671L188.986,89.917L202.094,89.917L202.094,86.231L196.999,86.231L199.431,83.363ZM208.888,80.087C211.294,80.087 213.163,78.218 213.163,75.786C213.163,73.405 211.294,71.485 208.888,71.485C206.481,71.485 204.561,73.405 204.561,75.786C204.561,78.218 206.481,80.087 208.888,80.087ZM209.886,89.917L221.355,71.895L218.488,71.895L207.019,89.917L209.886,89.917ZM208.862,77.219C208.094,77.219 207.429,76.554 207.429,75.786C207.429,75.018 208.094,74.352 208.862,74.352C209.63,74.352 210.296,75.018 210.296,75.786C210.296,76.554 209.63,77.219 208.862,77.219ZM219.537,90.327C221.944,90.327 223.813,88.458 223.813,86.026C223.813,83.645 221.944,81.725 219.537,81.725C217.131,81.725 215.211,83.645 215.211,86.026C215.211,88.458 217.131,90.327 219.537,90.327ZM219.512,87.459C218.744,87.459 218.078,86.794 218.078,86.026C218.078,85.258 218.744,84.592 219.512,84.592C220.28,84.592 220.945,85.258 220.945,86.026C220.945,86.794 220.28,87.459 219.512,87.459Z" style="fill:white;fill-rule:nonzero;"/>
        </g>
    </g>
</svg>
