<svg width="85" height="837" viewBox="0 0 85 837" fill="none" xmlns="http://www.w3.org/2000/svg">
<path d="M60.6587 57.6387V75.0933H56.9683V61.1416H56.8661L52.8689 63.6472V60.3745L57.1899 57.6387H60.6587Z" fill="black"/>
<path d="M53.0649 156.093V153.434L59.278 147.681C59.8064 147.17 60.2496 146.71 60.6075 146.301C60.9712 145.892 61.2467 145.491 61.4342 145.099C61.6217 144.701 61.7155 144.272 61.7155 143.812C61.7155 143.301 61.599 142.86 61.3661 142.491C61.1331 142.116 60.8149 141.829 60.4115 141.63C60.0081 141.426 59.5507 141.323 59.0394 141.323C58.5053 141.323 58.0394 141.431 57.6416 141.647C57.2439 141.863 56.9371 142.173 56.7212 142.576C56.5053 142.98 56.3973 143.46 56.3973 144.017H52.8945C52.8945 142.875 53.153 141.883 53.67 141.042C54.1871 140.201 54.9115 139.551 55.8433 139.09C56.7751 138.63 57.849 138.4 59.0649 138.4C60.3149 138.4 61.403 138.622 62.3291 139.065C63.2609 139.502 63.9854 140.11 64.5024 140.889C65.0195 141.667 65.278 142.559 65.278 143.565C65.278 144.224 65.1473 144.875 64.8859 145.517C64.6303 146.159 64.1729 146.872 63.5138 147.656C62.8547 148.434 61.9257 149.369 60.7269 150.46L58.1786 152.957V153.076H65.5081V156.093H53.0649Z" fill="black"/>
<path d="M59.5166 237.332C58.2439 237.332 57.1104 237.113 56.1161 236.676C55.1274 236.232 54.3462 235.625 53.7723 234.852C53.2041 234.073 52.9115 233.176 52.8945 232.159H56.6104C56.6331 232.585 56.7723 232.96 57.028 233.284C57.2894 233.602 57.6359 233.849 58.0678 234.025C58.4996 234.201 58.9854 234.289 59.5251 234.289C60.0876 234.289 60.5848 234.19 61.0166 233.991C61.4484 233.792 61.7865 233.517 62.0308 233.164C62.2751 232.812 62.3973 232.406 62.3973 231.946C62.3973 231.48 62.2666 231.068 62.0053 230.71C61.7496 230.346 61.3803 230.062 60.8973 229.857C60.42 229.653 59.8519 229.551 59.1928 229.551H57.5649V226.84H59.1928C59.7496 226.84 60.2411 226.744 60.6672 226.551C61.099 226.357 61.4342 226.09 61.6729 225.75C61.9115 225.403 62.0308 225 62.0308 224.539C62.0308 224.102 61.9257 223.718 61.7155 223.389C61.5109 223.053 61.2212 222.792 60.8462 222.605C60.4769 222.417 60.045 222.323 59.5507 222.323C59.0507 222.323 58.5933 222.414 58.1786 222.596C57.7638 222.772 57.4314 223.025 57.1814 223.355C56.9314 223.684 56.7979 224.071 56.7808 224.514H53.2439C53.2609 223.508 53.5479 222.622 54.1047 221.855C54.6615 221.088 55.4115 220.488 56.3547 220.056C57.3036 219.619 58.3746 219.4 59.5678 219.4C60.7723 219.4 61.8263 219.619 62.7297 220.056C63.6331 220.494 64.3348 221.085 64.8348 221.829C65.3405 222.568 65.5905 223.397 65.5848 224.318C65.5905 225.295 65.2865 226.11 64.6729 226.764C64.0649 227.417 63.2723 227.832 62.295 228.008V228.144C63.5791 228.309 64.5564 228.755 65.2269 229.482C65.903 230.204 66.2382 231.107 66.2325 232.193C66.2382 233.187 65.9513 234.071 65.3717 234.843C64.7979 235.616 64.0053 236.224 62.9939 236.667C61.9825 237.11 60.8234 237.332 59.5166 237.332Z" fill="black"/>
<path d="M52.8007 315.025V312.119L60.0876 300.639H62.5933V304.661H61.1104L56.5166 311.931V312.068H66.8717V315.025H52.8007ZM61.1786 318.093V314.139L61.2467 312.852V300.639H64.707V318.093H61.1786Z" fill="black"/>
<path d="M59.4399 399.332C58.2354 399.332 57.1615 399.11 56.2183 398.667C55.2808 398.224 54.5365 397.613 53.9854 396.835C53.4342 396.056 53.1473 395.164 53.1246 394.159H56.7041C56.7439 394.835 57.028 395.383 57.5564 395.803C58.0848 396.224 58.7126 396.434 59.4399 396.434C60.0195 396.434 60.5308 396.306 60.974 396.051C61.4229 395.789 61.7723 395.428 62.0223 394.968C62.278 394.502 62.4058 393.968 62.4058 393.366C62.4058 392.752 62.2751 392.213 62.0138 391.747C61.7581 391.281 61.403 390.917 60.9484 390.656C60.4939 390.394 59.974 390.261 59.3888 390.255C58.8774 390.255 58.3803 390.36 57.8973 390.571C57.42 390.781 57.0479 391.068 56.7808 391.431L53.4996 390.843L54.3263 381.639H64.9967V384.656H57.3689L56.9172 389.028H57.0195C57.3263 388.596 57.7894 388.238 58.4087 387.954C59.028 387.67 59.7212 387.528 60.4882 387.528C61.5394 387.528 62.4769 387.775 63.3007 388.269C64.1246 388.764 64.7751 389.443 65.2524 390.306C65.7297 391.164 65.9655 392.153 65.9598 393.272C65.9655 394.448 65.6928 395.494 65.1416 396.409C64.5962 397.318 63.832 398.034 62.849 398.556C61.8717 399.073 60.7354 399.332 59.4399 399.332Z" fill="black"/>
<path d="M59.7638 480.332C58.8661 480.326 57.9996 480.176 57.1644 479.88C56.3348 479.585 55.5905 479.105 54.9314 478.44C54.2723 477.775 53.7496 476.894 53.3632 475.798C52.9825 474.701 52.7922 473.355 52.7922 471.758C52.7979 470.292 52.9655 468.982 53.295 467.829C53.6303 466.67 54.1075 465.687 54.7269 464.88C55.3519 464.073 56.099 463.46 56.9683 463.039C57.8376 462.613 58.8121 462.4 59.8916 462.4C61.0564 462.4 62.0848 462.627 62.9769 463.082C63.8689 463.531 64.5848 464.142 65.1246 464.914C65.67 465.687 65.9996 466.553 66.1132 467.514H62.474C62.332 466.906 62.0337 466.428 61.5791 466.082C61.1246 465.735 60.5621 465.562 59.8916 465.562C58.7553 465.562 57.8916 466.056 57.3007 467.045C56.7155 468.034 56.4172 469.377 56.4058 471.076H56.5251C56.7865 470.559 57.1388 470.119 57.582 469.755C58.0308 469.386 58.5394 469.105 59.1075 468.911C59.6814 468.713 60.2865 468.613 60.9229 468.613C61.957 468.613 62.8774 468.857 63.6842 469.346C64.4911 469.829 65.1274 470.494 65.5933 471.34C66.0592 472.187 66.2922 473.156 66.2922 474.247C66.2922 475.428 66.0166 476.48 65.4655 477.4C64.92 478.321 64.1558 479.042 63.1729 479.565C62.1956 480.082 61.0592 480.338 59.7638 480.332ZM59.7467 477.434C60.3149 477.434 60.8234 477.298 61.2723 477.025C61.7212 476.752 62.0734 476.383 62.3291 475.917C62.5848 475.451 62.7126 474.928 62.7126 474.349C62.7126 473.769 62.5848 473.25 62.3291 472.789C62.0791 472.329 61.7325 471.963 61.2894 471.69C60.8462 471.417 60.3405 471.281 59.7723 471.281C59.3462 471.281 58.9513 471.36 58.5876 471.519C58.2297 471.678 57.9144 471.9 57.6416 472.184C57.3746 472.468 57.1644 472.798 57.0109 473.173C56.8575 473.542 56.7808 473.937 56.7808 474.357C56.7808 474.92 56.9087 475.434 57.1644 475.9C57.4257 476.366 57.778 476.738 58.2212 477.017C58.67 477.295 59.1786 477.434 59.7467 477.434Z" fill="black"/>
<path d="M53.7553 561.093L60.9911 546.775V546.656H52.5621V543.639H64.8092V546.698L57.5649 561.093H53.7553Z" fill="black"/>
<path d="M59.5763 642.332C58.2638 642.332 57.0962 642.119 56.0734 641.693C55.0564 641.261 54.2581 640.673 53.6786 639.928C53.099 639.184 52.8092 638.34 52.8092 637.397C52.8092 636.67 52.974 636.002 53.3036 635.394C53.6388 634.781 54.0933 634.272 54.6672 633.869C55.2411 633.46 55.8831 633.198 56.5933 633.085V632.965C55.6615 632.778 54.9058 632.326 54.3263 631.61C53.7467 630.889 53.457 630.051 53.457 629.096C53.457 628.193 53.7212 627.389 54.2496 626.684C54.778 625.974 55.5024 625.417 56.4229 625.014C57.349 624.605 58.4001 624.4 59.5763 624.4C60.7524 624.4 61.8007 624.605 62.7212 625.014C63.6473 625.423 64.3746 625.982 64.903 626.693C65.4314 627.397 65.6984 628.198 65.7041 629.096C65.6984 630.056 65.403 630.894 64.8178 631.61C64.2325 632.326 63.4825 632.778 62.5678 632.965V633.085C63.2666 633.198 63.9001 633.46 64.4683 633.869C65.0422 634.272 65.4967 634.781 65.832 635.394C66.1729 636.002 66.3462 636.67 66.3519 637.397C66.3462 638.34 66.0536 639.184 65.474 639.928C64.8945 640.673 64.0933 641.261 63.0706 641.693C62.0536 642.119 60.8888 642.332 59.5763 642.332ZM59.5763 639.622C60.1615 639.622 60.6729 639.517 61.1104 639.306C61.5479 639.09 61.8888 638.795 62.1331 638.42C62.3831 638.039 62.5081 637.602 62.5081 637.107C62.5081 636.602 62.3803 636.156 62.1246 635.769C61.8689 635.377 61.5223 635.071 61.0848 634.849C60.6473 634.622 60.1445 634.508 59.5763 634.508C59.0138 634.508 58.5109 634.622 58.0678 634.849C57.6246 635.071 57.2751 635.377 57.0195 635.769C56.7695 636.156 56.6445 636.602 56.6445 637.107C56.6445 637.602 56.7666 638.039 57.0109 638.42C57.2553 638.795 57.599 639.09 58.0422 639.306C58.4854 639.517 58.9967 639.622 59.5763 639.622ZM59.5763 631.823C60.0649 631.823 60.4996 631.724 60.8803 631.525C61.2609 631.326 61.5592 631.051 61.7751 630.698C61.9911 630.346 62.099 629.94 62.099 629.48C62.099 629.025 61.9911 628.627 61.7751 628.286C61.5592 627.94 61.2638 627.67 60.8888 627.477C60.5138 627.278 60.0763 627.178 59.5763 627.178C59.082 627.178 58.6445 627.278 58.2638 627.477C57.8831 627.67 57.5848 627.94 57.3689 628.286C57.1587 628.627 57.0536 629.025 57.0536 629.48C57.0536 629.94 57.1615 630.346 57.3774 630.698C57.5933 631.051 57.8916 631.326 58.2723 631.525C58.653 631.724 59.0876 631.823 59.5763 631.823Z" fill="black"/>
<path d="M59.3803 705.4C60.278 705.4 61.1416 705.551 61.9712 705.852C62.8064 706.153 63.5507 706.633 64.2041 707.292C64.8632 707.951 65.3831 708.826 65.7638 709.917C66.1501 711.002 66.3462 712.335 66.3519 713.914C66.3519 715.397 66.1842 716.721 65.849 717.886C65.5195 719.045 65.045 720.031 64.4257 720.843C63.8064 721.656 63.0592 722.275 62.1842 722.701C61.3092 723.122 60.332 723.332 59.2524 723.332C58.0876 723.332 57.0592 723.107 56.1672 722.659C55.2751 722.204 54.5564 721.588 54.0109 720.809C53.4712 720.025 53.1445 719.144 53.0308 718.167H56.67C56.8121 718.803 57.1104 719.298 57.5649 719.65C58.0195 719.997 58.582 720.17 59.2524 720.17C60.3888 720.17 61.2524 719.676 61.8433 718.687C62.4342 717.693 62.7325 716.332 62.7382 714.605H62.6189C62.3575 715.116 62.0053 715.556 61.5621 715.926C61.1189 716.289 60.6104 716.571 60.0365 716.769C59.4683 716.968 58.8632 717.068 58.2212 717.068C57.1928 717.068 56.2751 716.826 55.4683 716.343C54.6615 715.86 54.0251 715.196 53.5592 714.349C53.0933 713.502 52.8604 712.536 52.8604 711.451C52.8547 710.281 53.1246 709.238 53.67 708.323C54.2155 707.409 54.9769 706.693 55.9541 706.176C56.9371 705.653 58.0791 705.394 59.3803 705.4ZM59.4058 708.298C58.832 708.298 58.3206 708.434 57.8717 708.707C57.4286 708.98 57.0763 709.346 56.8149 709.806C56.5592 710.267 56.4342 710.781 56.4399 711.349C56.4399 711.923 56.5649 712.44 56.8149 712.9C57.0706 713.355 57.4172 713.718 57.8547 713.991C58.2979 714.258 58.8036 714.392 59.3717 714.392C59.7979 714.392 60.1928 714.312 60.5564 714.153C60.92 713.994 61.2354 713.775 61.5024 713.497C61.7751 713.213 61.9882 712.886 62.1416 712.517C62.295 712.147 62.3717 711.755 62.3717 711.34C62.3661 710.789 62.2354 710.284 61.9797 709.823C61.724 709.363 61.3717 708.994 60.9229 708.715C60.474 708.437 59.9683 708.298 59.4058 708.298Z" fill="black"/>
<path d="M60.6587 786.639V804.093H56.9683V790.142H56.8661L52.8689 792.647V789.375L57.1899 786.639H60.6587ZM71.6509 804.477C70.1849 804.471 68.9236 804.11 67.8668 803.394C66.8156 802.678 66.006 801.642 65.4378 800.284C64.8753 798.926 64.5969 797.292 64.6026 795.383C64.6026 793.48 64.8838 791.857 65.4463 790.517C66.0145 789.176 66.8242 788.156 67.8753 787.457C68.9321 786.752 70.1906 786.4 71.6509 786.4C73.1111 786.4 74.3668 786.752 75.4179 787.457C76.4747 788.161 77.2872 789.184 77.8554 790.525C78.4236 791.86 78.7048 793.48 78.6992 795.383C78.6992 797.298 78.4151 798.934 77.8469 800.292C77.2844 801.65 76.4776 802.687 75.4264 803.403C74.3753 804.119 73.1168 804.477 71.6509 804.477ZM71.6509 801.417C72.6509 801.417 73.4492 800.914 74.0457 799.909C74.6423 798.903 74.9378 797.394 74.9321 795.383C74.9321 794.059 74.7957 792.957 74.523 792.076C74.256 791.196 73.8753 790.534 73.381 790.09C72.8923 789.647 72.3156 789.426 71.6509 789.426C70.6565 789.426 69.8611 789.923 69.2645 790.917C68.6679 791.911 68.3668 793.4 68.3611 795.383C68.3611 796.724 68.4946 797.843 68.7617 798.741C69.0344 799.633 69.4179 800.303 69.9122 800.752C70.4065 801.196 70.9861 801.417 71.6509 801.417Z" fill="black"/>
<path d="M25.4136 150.845L7.95903 150.845L7.95903 143.958C7.95903 142.64 8.19482 141.515 8.66641 140.583C9.13232 139.646 9.79425 138.933 10.6522 138.444C11.5045 137.95 12.5073 137.703 13.6607 137.703C14.8198 137.703 15.817 137.953 16.6522 138.453C17.4818 138.953 18.1181 139.677 18.5613 140.626C19.0045 141.569 19.2261 142.711 19.2261 144.052L19.2261 148.663L16.2602 148.663L16.2602 144.649C16.2602 143.944 16.1636 143.359 15.9704 142.893C15.7772 142.427 15.4874 142.081 15.1011 141.853C14.7147 141.62 14.2346 141.504 13.6607 141.504C13.0812 141.504 12.5926 141.62 12.1948 141.853C11.7971 142.081 11.496 142.43 11.2914 142.902C11.0812 143.368 10.9761 143.956 10.9761 144.666L10.9761 147.154L25.4136 147.154L25.4136 150.845ZM17.4704 141.419L25.4136 137.081L25.4136 141.154L17.4704 145.399L17.4704 141.419ZM25.6607 131.43C25.6607 132.265 25.5158 133.01 25.2261 133.663C24.9306 134.316 24.496 134.833 23.9221 135.214C23.3426 135.589 22.621 135.777 21.7573 135.777C21.0301 135.777 20.4193 135.643 19.9249 135.376C19.4306 135.109 19.0329 134.745 18.7318 134.285C18.4306 133.825 18.2033 133.302 18.0499 132.717C17.8965 132.126 17.7886 131.507 17.7261 130.859C17.6465 130.098 17.5727 129.484 17.5045 129.018C17.4306 128.552 17.3227 128.214 17.1806 128.004C17.0386 127.794 16.8283 127.689 16.5499 127.689L16.4988 127.689C15.959 127.689 15.5414 127.859 15.246 128.2C14.9505 128.535 14.8028 129.012 14.8028 129.632C14.8028 130.285 14.9477 130.805 15.2374 131.191C15.5215 131.578 15.8795 131.833 16.3113 131.958L16.0386 135.316C15.2431 135.146 14.5556 134.811 13.9761 134.311C13.3908 133.811 12.942 133.166 12.6295 132.376C12.3113 131.581 12.1522 130.66 12.1522 129.615C12.1522 128.887 12.2374 128.191 12.4079 127.527C12.5783 126.856 12.8425 126.262 13.2005 125.745C13.5585 125.223 14.0187 124.811 14.5812 124.51C15.138 124.208 15.8056 124.058 16.584 124.058L25.4136 124.058L25.4136 127.501L23.5982 127.501L23.5982 127.603C24.0073 127.814 24.3681 128.095 24.6806 128.447C24.9874 128.799 25.2289 129.223 25.4051 129.717C25.5755 130.211 25.6607 130.782 25.6607 131.43ZM23.1551 130.39C23.1551 129.856 23.0499 129.385 22.8397 128.976C22.6238 128.566 22.334 128.245 21.9704 128.012C21.6068 127.779 21.1948 127.663 20.7346 127.663L19.3454 127.663C19.4193 127.777 19.4874 127.933 19.5499 128.132C19.6068 128.325 19.6607 128.544 19.7119 128.788C19.7573 129.032 19.7999 129.277 19.8397 129.521C19.8738 129.765 19.905 129.987 19.9335 130.186C19.996 130.612 20.0954 130.984 20.2318 131.302C20.3681 131.62 20.5528 131.868 20.7857 132.044C21.013 132.22 21.2971 132.308 21.638 132.308C22.1323 132.308 22.5102 132.129 22.7715 131.771C23.0272 131.407 23.1551 130.947 23.1551 130.39ZM17.8454 117.61L25.4136 117.61L25.4136 121.241L12.3227 121.241L12.3227 117.781L14.6323 117.781L14.6323 117.628C13.871 117.338 13.2687 116.852 12.8255 116.17C12.3766 115.488 12.1522 114.662 12.1522 113.69C12.1522 112.781 12.3511 111.988 12.7488 111.312C13.1465 110.636 13.7147 110.11 14.4533 109.735C15.1863 109.36 16.0613 109.173 17.0783 109.173L25.4136 109.173L25.4136 112.804L17.7261 112.804C16.9249 112.798 16.2999 113.003 15.8511 113.417C15.3965 113.832 15.1693 114.403 15.1693 115.13C15.1693 115.619 15.2744 116.051 15.4846 116.426C15.6948 116.795 16.0016 117.085 16.405 117.295C16.8028 117.5 17.2829 117.605 17.8454 117.61ZM21.6465 103.022L17.2914 103.013L17.2914 102.485L12.3227 98.2916L12.3227 94.124L18.9022 99.7575L18.9022 100.618L21.6465 103.022ZM25.4136 106.311L7.95903 106.311L7.95903 102.681L25.4136 102.681L25.4136 106.311ZM25.4136 98.1296L19.7119 101.982L17.1465 99.5615L25.4136 93.8768L25.4136 98.1296ZM25.4136 92.3427L12.3227 92.3427L12.3227 88.712L25.4136 88.712L25.4136 92.3427ZM10.6352 90.5188C10.6352 91.0586 10.4562 91.5217 10.0982 91.908C9.73459 92.2887 9.29993 92.4791 8.79425 92.4791C8.29425 92.4791 7.86528 92.2887 7.50732 91.908C7.14368 91.5217 6.96187 91.0586 6.96187 90.5188C6.96187 89.9791 7.14368 89.5188 7.50732 89.1382C7.86528 88.7518 8.29425 88.5586 8.79425 88.5586C9.29993 88.5586 9.73459 88.7518 10.0982 89.1382C10.4562 89.5188 10.6352 89.9791 10.6352 90.5188ZM17.8454 82.173L25.4136 82.173L25.4136 85.8036L12.3227 85.8036L12.3227 82.3434L14.6323 82.3434L14.6323 82.19C13.871 81.9002 13.2687 81.4144 12.8255 80.7326C12.3766 80.0508 12.1522 79.2241 12.1522 78.2525C12.1522 77.3434 12.3511 76.5508 12.7488 75.8747C13.1465 75.1985 13.7147 74.673 14.4533 74.298C15.1863 73.923 16.0613 73.7355 17.0783 73.7355L25.4136 73.7355L25.4136 77.3661L17.7261 77.3661C16.9249 77.3605 16.2999 77.565 15.8511 77.9798C15.3965 78.3946 15.1693 78.9656 15.1693 79.6928C15.1693 80.1815 15.2744 80.6133 15.4846 80.9883C15.6948 81.3576 16.0016 81.6474 16.405 81.8576C16.8028 82.0622 17.2829 82.1673 17.8454 82.173ZM30.5954 64.9762C30.5954 66.1524 30.4335 67.1609 30.1096 68.0018C29.7914 68.837 29.3568 69.5018 28.8056 69.9961C28.2545 70.4904 27.6352 70.8115 26.9477 70.9592L26.496 67.6012C26.7573 67.499 27.0016 67.337 27.2289 67.1154C27.4562 66.8938 27.638 66.6012 27.7744 66.2376C27.9164 65.8683 27.9874 65.4194 27.9874 64.891C27.9874 64.1012 27.7943 63.4507 27.4079 62.9393C27.0272 62.4223 26.388 62.1637 25.4903 62.1637L23.0954 62.1637L23.0954 62.3171C23.459 62.4762 23.8028 62.7149 24.1266 63.033C24.4505 63.3512 24.7147 63.7603 24.9193 64.2603C25.1238 64.7603 25.2261 65.3569 25.2261 66.0501C25.2261 67.033 24.9988 67.9279 24.5443 68.7348C24.084 69.5359 23.3823 70.1751 22.4391 70.6524C21.4903 71.124 20.2914 71.3598 18.8425 71.3598C17.3596 71.3598 16.121 71.1183 15.1266 70.6353C14.1323 70.1524 13.388 69.5103 12.8937 68.7092C12.3994 67.9024 12.1522 67.0188 12.1522 66.0586C12.1522 65.3257 12.2772 64.712 12.5272 64.2177C12.7715 63.7234 13.0783 63.3257 13.4477 63.0245C13.8113 62.7177 14.1693 62.4819 14.5215 62.3171L14.5215 62.1808L12.3227 62.1808L12.3227 58.5757L25.5414 58.5757C26.655 58.5757 27.5869 58.8484 28.3369 59.3938C29.0869 59.9393 29.6494 60.695 30.0244 61.6609C30.405 62.6211 30.5954 63.7262 30.5954 64.9762ZM22.4988 64.8995C22.4988 64.3143 22.3539 63.82 22.0641 63.4166C21.7687 63.0075 21.3482 62.695 20.8028 62.4791C20.2516 62.2575 19.5925 62.1467 18.8255 62.1467C18.0585 62.1467 17.3937 62.2546 16.8312 62.4705C16.263 62.6865 15.8227 62.999 15.5102 63.408C15.1977 63.8171 15.0414 64.3143 15.0414 64.8995C15.0414 65.4961 15.2033 65.999 15.5272 66.408C15.8454 66.8171 16.2886 67.1268 16.8568 67.337C17.4249 67.5473 18.0812 67.6524 18.8255 67.6524C19.5812 67.6524 20.2346 67.5473 20.7857 67.337C21.3312 67.1211 21.7545 66.8115 22.0556 66.408C22.3511 65.999 22.4988 65.4961 22.4988 64.8995Z" fill="black"/>
</svg>
