<svg width="121" height="121" viewBox="0 0 121 121" fill="none" xmlns="http://www.w3.org/2000/svg">
<path d="M0.307129 0.714844L60.2845 60.4675V0.714844H0.307129Z" fill="#F9F6EF"/>
<path d="M120.307 60.4675L60.3298 0.714844H120.307V60.4675Z" fill="#F9F6EF"/>
<path d="M120.307 120.715L60.3298 60.9619H120.307V120.715Z" fill="#F9F6EF"/>
<path d="M60.2845 120.715L0.307129 60.9619H60.2845V120.715Z" fill="#F9F6EF"/>
<rect x="28.141" y="27.9941" width="65" height="65" fill="#FFC928"/>
<path d="M61.9655 79.0975L61.9655 41.8926C72.1731 41.9703 80.4238 50.2692 80.4238 60.495C80.4238 70.7209 72.1731 79.0198 61.9655 79.0975Z" fill="#4529F5"/>
<path d="M59.3164 79.0975L59.3164 41.8926C49.1088 41.9703 40.858 50.2692 40.858 60.495C40.858 70.7209 49.1088 79.0198 59.3164 79.0975Z" fill="#FF1339"/>
</svg>
