<svg width="181" height="181" viewBox="0 0 181 181" fill="none" xmlns="http://www.w3.org/2000/svg">
<g clip-path="url(#clip0_201_366)">
<path fill-rule="evenodd" clip-rule="evenodd" d="M11.8661 145.158L33.7081 123.389C43.8831 113.248 57.5645 108.731 70.8611 109.825C71.9593 123.077 67.4265 136.713 57.2515 146.854L35.4096 168.623L11.8661 145.158Z" fill="#4529F5"/>
<path d="M43.3093 137.269C46.0982 140.048 50.62 140.048 53.4089 137.269C56.1979 134.489 56.1979 129.982 53.409 127.202C50.62 124.423 46.0982 124.423 43.3093 127.202C40.5203 129.982 40.5203 134.489 43.3093 137.269Z" fill="white"/>
<path fill-rule="evenodd" clip-rule="evenodd" d="M0.000775162 133.331C8.30915 125.051 21.7991 125.05 30.107 133.33L15.0533 148.334L0.000775162 133.331Z" fill="#4529F5"/>
<path fill-rule="evenodd" clip-rule="evenodd" d="M47.2604 180.433C55.5688 172.153 55.5697 158.708 47.2617 150.427L32.2079 165.431L47.2604 180.433Z" fill="#4529F5"/>
<path fill-rule="evenodd" clip-rule="evenodd" d="M27.0512 166.712C21.7167 171.474 14.7119 173.363 8.04982 172.396C7.07908 165.756 8.98274 158.782 13.7521 153.458L27.0512 166.712Z" fill="#FFC928"/>
<path fill-rule="evenodd" clip-rule="evenodd" d="M24.1394 163.812C21.1518 166.479 17.2287 167.537 13.4976 166.995C12.9539 163.276 14.0201 159.371 16.6912 156.389L24.1394 163.812Z" fill="#FF1339"/>
<path d="M35.4008 168.613L11.8599 145.15L8.50861 148.49L32.0495 171.953L35.4008 168.613Z" fill="white"/>
<path fill-rule="evenodd" clip-rule="evenodd" d="M90.5 90.462C90.5 78.0474 100.611 67.9686 113.069 67.9686C115.804 67.9686 118.431 68.4558 120.864 69.3483C121.568 56.0533 132.622 45.4751 146.136 45.4751C160.106 45.4751 171.449 56.779 171.449 70.702C171.449 71.2112 171.431 71.7173 171.404 72.2194C177.078 76.3064 180.774 82.9577 180.774 90.462H90.5Z" fill="white"/>
<path d="M20.9352 42.2274C32.4998 42.2274 41.875 32.8836 41.875 21.3575C41.875 9.83132 32.4998 0.487549 20.9352 0.487549C9.37055 0.487549 -0.00427246 9.83132 -0.00427246 21.3575C-0.00427246 32.8836 9.37055 42.2274 20.9352 42.2274Z" fill="#FFC928"/>
<path fill-rule="evenodd" clip-rule="evenodd" d="M62.4587 50.3113C62.4587 44.104 57.4034 39.0646 51.1745 39.0646C49.8068 39.0646 48.4933 39.3082 47.2769 39.7545C46.9248 33.107 41.3977 27.8179 34.6407 27.8179C27.6557 27.8179 21.9842 33.4698 21.9842 40.4313C21.9842 40.6859 21.9932 40.939 22.0068 41.19C19.1699 43.2335 17.3216 46.5592 17.3216 50.3113H62.4587Z" fill="white"/>
</g>
<defs>
<clipPath id="clip0_201_366">
<rect width="181" height="179.948" fill="white" transform="translate(0 0.488281)"/>
</clipPath>
</defs>
</svg>
