<svg width="181" height="621" viewBox="0 0 181 621" fill="none" xmlns="http://www.w3.org/2000/svg">
<path fill-rule="evenodd" clip-rule="evenodd" d="M0.501587 0.436035C25.4128 0.436035 45.6387 20.2768 45.6387 44.7145C45.6387 69.1526 25.4128 88.9929 0.501587 88.9929V0.436035Z" fill="white"/>
<path fill-rule="evenodd" clip-rule="evenodd" d="M90.7769 0.436035C65.8657 0.436035 45.6397 20.2768 45.6397 44.7145C45.6397 69.1526 65.8657 88.9929 90.7769 88.9929V0.436035Z" fill="#FDFCF9"/>
<path fill-rule="evenodd" clip-rule="evenodd" d="M180.771 44.7169L180.993 44.9339L135.855 89.2123L135.634 88.9954V44.9339H90.7182L90.4969 44.7169L135.855 0.438477H180.993V44.7169H180.771Z" fill="white"/>
<path fill-rule="evenodd" clip-rule="evenodd" d="M90.4987 133.489C90.5167 133.489 90.5347 133.489 90.5572 133.489C115.437 133.489 135.637 153.329 135.637 177.768H90.4987V133.489Z" fill="#FDFCF9"/>
<path fill-rule="evenodd" clip-rule="evenodd" d="M90.4987 133.489C90.5167 133.489 90.5347 133.489 90.5572 133.489C115.437 133.489 135.637 113.649 135.637 89.2104H90.4987V133.489Z" fill="white"/>
<path fill-rule="evenodd" clip-rule="evenodd" d="M180.771 133.489C180.753 133.489 180.735 133.489 180.712 133.489C155.833 133.489 135.632 153.329 135.632 177.768H180.771V133.489Z" fill="white"/>
<path fill-rule="evenodd" clip-rule="evenodd" d="M180.771 133.489C180.753 133.489 180.735 133.489 180.712 133.489C155.833 133.489 135.632 113.649 135.632 89.2104H180.771V133.489Z" fill="#FDFCF9"/>
<path fill-rule="evenodd" clip-rule="evenodd" d="M45.3812 133.487L0.277321 89.2092L90.4917 89.2092L45.3812 133.487Z" fill="#FDFCF9"/>
<path fill-rule="evenodd" clip-rule="evenodd" d="M45.3627 133.49L90.495 177.768H0.223877L45.3627 133.49Z" fill="white"/>
<path d="M45.1374 249.236C60.4465 249.236 72.8569 237.062 72.8569 222.044C72.8569 207.026 60.4465 194.852 45.1374 194.852C29.8283 194.852 17.4178 207.026 17.4178 222.044C17.4178 237.062 29.8283 249.236 45.1374 249.236Z" fill="white"/>
<path fill-rule="evenodd" clip-rule="evenodd" d="M90.2747 177.768V266.325H0.000366211V177.768H90.2747ZM45.1375 196.164C30.5763 196.164 18.7504 207.761 18.7504 222.046C18.7504 236.332 30.5763 247.93 45.1375 247.93C59.6988 247.93 71.5249 236.332 71.5249 222.046C71.5249 207.761 59.6988 196.164 45.1375 196.164Z" fill="#FDFCF9"/>
<path fill-rule="evenodd" clip-rule="evenodd" d="M0.279541 266.325C25.1907 266.325 45.4167 286.166 45.4167 310.604C45.4167 335.042 25.1907 354.882 0.279541 354.882V266.325Z" fill="white"/>
<path fill-rule="evenodd" clip-rule="evenodd" d="M90.5547 266.325C65.6435 266.325 45.4175 286.166 45.4175 310.604C45.4175 335.042 65.6435 354.882 90.5547 354.882V266.325Z" fill="#FDFCF9"/>
<path d="M135.412 177.768H180.549V266.324H135.412V177.768Z" fill="#FDFCF9"/>
<path d="M90.2746 177.768H135.412V266.324H90.2746V177.768Z" fill="white"/>
<path fill-rule="evenodd" clip-rule="evenodd" d="M180.549 310.605L180.77 310.822L135.633 355.101L135.412 354.884V310.822H90.4959L90.2747 310.605L135.633 266.327H180.77V310.605H180.549Z" fill="white"/>
<path fill-rule="evenodd" clip-rule="evenodd" d="M90.4987 399.38C90.5167 399.38 90.5347 399.38 90.5572 399.38C115.437 399.38 135.637 419.22 135.637 443.658H90.4987V399.38Z" fill="#FDFCF9"/>
<path fill-rule="evenodd" clip-rule="evenodd" d="M90.4987 399.379C90.5167 399.379 90.5347 399.379 90.5572 399.379C115.437 399.379 135.637 379.538 135.637 355.1H90.4987V399.379Z" fill="white"/>
<path fill-rule="evenodd" clip-rule="evenodd" d="M180.771 399.38C180.753 399.38 180.735 399.38 180.712 399.38C155.833 399.38 135.632 419.22 135.632 443.658H180.771V399.38Z" fill="white"/>
<path fill-rule="evenodd" clip-rule="evenodd" d="M180.771 399.379C180.753 399.379 180.735 399.379 180.712 399.379C155.833 399.379 135.632 379.538 135.632 355.1H180.771V399.379Z" fill="#FDFCF9"/>
<path fill-rule="evenodd" clip-rule="evenodd" d="M45.3812 399.377L0.277321 355.099H90.4917L45.3812 399.377Z" fill="#FDFCF9"/>
<path fill-rule="evenodd" clip-rule="evenodd" d="M45.3627 399.38L90.495 443.658H0.223877L45.3627 399.38Z" fill="white"/>
<path d="M45.1375 515.127C60.4466 515.127 72.857 502.952 72.857 487.934C72.857 472.917 60.4466 460.742 45.1375 460.742C29.8284 460.742 17.418 472.917 17.418 487.934C17.418 502.952 29.8284 515.127 45.1375 515.127Z" fill="#F9F6EF"/>
<path fill-rule="evenodd" clip-rule="evenodd" d="M90.2748 443.658V532.215H0.000488281V443.658H90.2748ZM45.1376 462.053C30.5764 462.053 18.7505 473.651 18.7505 487.936C18.7505 502.222 30.5764 513.82 45.1376 513.82C59.6989 513.82 71.525 502.222 71.525 487.936C71.525 473.651 59.6989 462.053 45.1376 462.053Z" fill="#FDFCF9"/>
<path fill-rule="evenodd" clip-rule="evenodd" d="M0.279541 532.215C25.1907 532.215 45.4167 552.056 45.4167 576.493C45.4167 600.931 25.1907 620.772 0.279541 620.772V532.215Z" fill="white"/>
<path fill-rule="evenodd" clip-rule="evenodd" d="M90.5547 532.215C65.6435 532.215 45.4175 552.056 45.4175 576.493C45.4175 600.931 65.6435 620.772 90.5547 620.772V532.215Z" fill="#FDFCF9"/>
<path d="M135.412 443.658H180.549V532.215H135.412V443.658Z" fill="#FDFCF9"/>
<path d="M90.2747 443.658H135.412V532.215H90.2747V443.658Z" fill="white"/>
<path fill-rule="evenodd" clip-rule="evenodd" d="M180.549 576.495L180.77 576.712L135.633 620.991L135.412 620.774V576.712H90.4961L90.2748 576.495L135.633 532.217H180.77V576.495H180.549Z" fill="white"/>
</svg>
