<svg width="182" height="182" viewBox="0 0 182 182" fill="none" xmlns="http://www.w3.org/2000/svg">
<path fill-rule="evenodd" clip-rule="evenodd" d="M135.872 0.244629L181.122 45.4981H135.872V0.244629Z" fill="#FDFCF9"/>
<path fill-rule="evenodd" clip-rule="evenodd" d="M0.122032 90.7383C0.122032 115.715 20.3977 136.009 45.3721 136.009C70.3461 136.009 90.6221 115.715 90.6221 90.7383H0.122032Z" fill="#FDFCF9"/>
<path fill-rule="evenodd" clip-rule="evenodd" d="M0.122032 135.988C0.122032 160.965 20.3977 181.259 45.3721 181.259C70.3461 181.259 90.6221 160.965 90.6221 135.988H0.122032Z" fill="#FDFCF9"/>
<path fill-rule="evenodd" clip-rule="evenodd" d="M90.622 0.243164L181.122 90.7501H90.622V0.243164Z" fill="#FDFCF9"/>
<path fill-rule="evenodd" clip-rule="evenodd" d="M0.122032 0.243164H90.6221L0.122032 90.7501V0.243164Z" fill="#FDFCF9"/>
<path fill-rule="evenodd" clip-rule="evenodd" d="M90.622 181.251C90.622 157.258 100.157 134.215 117.129 117.247C134.101 100.279 157.12 90.7437 181.122 90.7437V181.251H90.622Z" fill="#FDFCF9"/>
<path d="M80.4066 111.88H97.8397V162.03H80.4066V111.88Z" fill="#FFC928"/>
<path fill-rule="evenodd" clip-rule="evenodd" d="M43.5619 42.7524C43.5619 76.8261 71.1953 104.416 105.232 104.416C139.269 104.416 166.903 76.8261 166.903 42.7524H43.5619Z" fill="black"/>
<path fill-rule="evenodd" clip-rule="evenodd" d="M11.3433 42.7524C11.3433 76.8261 38.9766 104.416 73.0134 104.416C107.051 104.416 134.684 76.8261 134.684 42.7524H11.3433Z" fill="#4529F5"/>
<path fill-rule="evenodd" clip-rule="evenodd" d="M41.7522 26.5659H136.494V73.2615C136.494 85.8177 131.503 97.865 122.62 106.756C113.736 115.647 101.687 120.636 89.1236 120.636H89.1229C76.5592 120.636 64.5103 115.647 55.6265 106.756C46.7428 97.865 41.7522 85.8177 41.7522 73.2615C41.7522 49.8458 41.7522 26.5659 41.7522 26.5659Z" fill="#FFC928"/>
<path d="M48.2258 155.963H130.021V181.25H48.2258V155.963Z" fill="black"/>
<path fill-rule="evenodd" clip-rule="evenodd" d="M67.0186 26.5659C67.0186 40.5135 55.6973 51.8481 41.752 51.8481C55.6973 51.8481 67.0186 63.1489 67.0186 77.0965C67.0186 63.1489 78.3403 51.8481 92.2855 51.8481C78.3403 51.8481 67.0186 40.5135 67.0186 26.5659Z" fill="#FDFCF9"/>
<path fill-rule="evenodd" clip-rule="evenodd" d="M109.128 83.8892C109.128 93.1862 101.581 100.741 92.2856 100.741C101.581 100.741 109.128 108.274 109.128 117.571C109.128 108.274 116.674 100.741 125.97 100.741C116.674 100.741 109.128 93.1862 109.128 83.8892Z" fill="#FDFCF9"/>
</svg>
