<?xml version="1.0" encoding="UTF-8" standalone="no"?>
<!DOCTYPE svg PUBLIC "-//W3C//DTD SVG 1.1//EN" "http://www.w3.org/Graphics/SVG/1.1/DTD/svg11.dtd">
<svg width="100%" height="100%" viewBox="0 0 321 321" version="1.1" xmlns="http://www.w3.org/2000/svg" xmlns:xlink="http://www.w3.org/1999/xlink" xml:space="preserve" xmlns:serif="http://www.serif.com/" style="fill-rule:evenodd;clip-rule:evenodd;stroke-linejoin:round;stroke-miterlimit:2;">
    <g transform="matrix(1,0,0,1,-1280,-639)">
        <g transform="matrix(0.999813,0,0,0.999794,0.240021,0.131767)">
            <g id="box-17">
                <g transform="matrix(1.00019,0,0,1.00021,-0.240066,-0.131794)">
                    <rect x="1280.35" y="639" width="160.03" height="160.033" style="fill:rgb(253,252,249);fill-rule:nonzero;"/>
                </g>
                <g transform="matrix(1.00019,0,0,1.00021,-0.240066,-0.131794)">
                    <rect x="1440.38" y="799.033" width="160.03" height="160.033" style="fill:white;fill-rule:nonzero;"/>
                </g>
                <path d="M1440.38,959.066C1352.06,959.066 1280.35,887.357 1280.35,799.033C1280.35,710.708 1352.06,639 1440.38,639L1440.38,959.066Z"/>
                <path d="M1600.41,959.066C1512.09,959.066 1440.38,887.357 1440.38,799.033C1440.38,710.708 1512.09,639 1600.41,639L1600.41,959.066Z" style="fill:white;"/>
                <circle cx="1520" cy="879" r="80" style="fill:rgb(69,41,245);"/>
            </g>
        </g>
    </g>
</svg>
