<?xml version="1.0" encoding="UTF-8" standalone="no"?>
<!DOCTYPE svg PUBLIC "-//W3C//DTD SVG 1.1//EN" "http://www.w3.org/Graphics/SVG/1.1/DTD/svg11.dtd">
<svg width="100%" height="100%" viewBox="0 0 321 320" version="1.1" xmlns="http://www.w3.org/2000/svg" xmlns:xlink="http://www.w3.org/1999/xlink" xml:space="preserve" xmlns:serif="http://www.serif.com/" style="fill-rule:evenodd;clip-rule:evenodd;stroke-linejoin:round;stroke-miterlimit:2;">
    <g transform="matrix(1,0,0,1,-639,-640)">
        <g id="box-15">
            <circle cx="799.422" cy="800" r="160"/>
            <path d="M736.91,807.145C740.631,802.754 744.65,796.95 744.65,790.401C744.65,780.429 736.315,772.615 725.599,772.615C714.064,772.615 706.548,781.024 706.548,790.401C706.548,793.526 707.813,797.843 709.971,800.447L720.017,795.908C719.05,794.568 718.455,792.187 718.455,790.401C718.455,785.787 722.176,783.331 725.599,783.331C729.022,783.331 732.743,785.787 732.743,790.401C732.743,794.122 731.478,797.843 722.473,808.038L706.548,826.196L744.65,826.196L744.65,815.48L729.841,815.48L736.91,807.145Z" style="fill:white;fill-rule:nonzero;"/>
            <path d="M776.799,772.614C762.957,772.614 751.795,784.298 751.795,800C751.795,815.702 762.957,827.386 776.799,827.386C790.641,827.386 801.804,815.702 801.804,800C801.804,784.298 790.641,772.614 776.799,772.614ZM776.799,816.67C769.581,816.67 763.702,809.823 763.702,800C763.702,790.177 769.581,783.33 776.799,783.33C784.018,783.33 789.897,790.177 789.897,800C789.897,809.823 784.018,816.67 776.799,816.67Z" style="fill:white;fill-rule:nonzero;"/>
            <path d="M839.311,807.145C843.032,802.754 847.051,796.949 847.051,790.4C847.051,780.428 838.716,772.614 828,772.614C816.465,772.614 808.949,781.024 808.949,790.4C808.949,793.526 810.214,797.842 812.372,800.447L822.418,795.907C821.451,794.568 820.856,792.187 820.856,790.4C820.856,785.787 824.577,783.331 828,783.331C831.423,783.331 835.144,785.787 835.144,790.4C835.144,794.121 833.879,797.842 824.874,808.038L808.949,826.196L847.051,826.196L847.051,815.479L832.242,815.479L839.311,807.145Z" style="fill:white;fill-rule:nonzero;"/>
            <path d="M884.557,807.145C888.278,802.754 892.297,796.949 892.297,790.4C892.297,780.428 883.962,772.614 873.246,772.614C861.711,772.614 854.195,781.024 854.195,790.4C854.195,793.526 855.46,797.842 857.618,800.447L867.664,795.907C866.697,794.568 866.101,792.187 866.101,790.4C866.101,785.787 869.822,783.331 873.246,783.331C876.669,783.331 880.39,785.787 880.39,790.4C880.39,794.121 879.125,797.842 870.12,808.038L854.195,826.196L892.297,826.196L892.297,815.479L877.488,815.479L884.557,807.145Z" style="fill:white;fill-rule:nonzero;"/>
        </g>
    </g>
</svg>
